# Blender v2.79 (sub 0) OBJ File: ''
# www.blender.org
o Cube_Cube.001
v -1.000000 -0.500000 0.500000
v -1.000000 0.500000 0.500000
v -1.000000 -0.500000 -0.500000
v -1.000000 0.500000 -0.500000
v 1.000000 -0.500000 0.500000
v 1.000000 0.500000 0.500000
v 1.000000 -0.500000 -0.500000
v 1.000000 0.500000 -0.500000
v -0.500000 -0.500000 -1.000000
v -0.500000 -0.500000 1.000000
v -0.500000 0.500000 1.000000
v -0.500000 0.500000 -1.000000
v 0.500000 0.500000 -1.000000
v 0.500000 -0.500000 -1.000000
v 0.500000 -0.500000 1.000000
v 0.500000 0.500000 1.000000
v -0.500000 -1.000000 0.500000
v -0.500000 1.000000 0.500000
v -0.500000 1.000000 -0.500000
v -0.500000 -1.000000 -0.500000
v 0.500000 -1.000000 -0.500000
v 0.500000 1.000000 -0.500000
v 0.500000 1.000000 0.500000
v 0.500000 -1.000000 0.500000
v -1.000000 -1.000000 -1.000000
v -1.000000 -1.000000 1.000000
v -1.000000 1.000000 1.000000
v -1.000000 1.000000 -1.000000
v 1.000000 -1.000000 -1.000000
v 1.000000 1.000000 -1.000000
v 1.000000 -1.000000 1.000000
v 1.000000 1.000000 1.000000
v -0.500000 -0.500000 0.500000
v -0.500000 0.500000 0.500000
v -0.500000 0.500000 -0.500000
v -0.500000 -0.500000 -0.500000
v 0.500000 0.500000 -0.500000
v 0.500000 -0.500000 -0.500000
v 0.500000 0.500000 0.500000
v 0.500000 -0.500000 0.500000
vn -1.0000 0.0000 0.0000
vn 1.0000 0.0000 0.0000
vn 0.0000 0.0000 1.0000
vn 0.0000 0.0000 -1.0000
vn 0.0000 -1.0000 0.0000
vn 0.0000 1.0000 0.0000
s off
f 1//1 3//1 25//1 26//1
f 2//1 1//1 26//1 27//1
f 4//1 2//1 27//1 28//1
f 3//1 4//1 28//1 25//1
f 8//2 7//2 29//2 30//2
f 7//2 5//2 31//2 29//2
f 6//2 8//2 30//2 32//2
f 5//2 6//2 32//2 31//2
f 10//3 11//3 27//3 26//3
f 12//4 9//4 25//4 28//4
f 9//4 14//4 29//4 25//4
f 13//4 12//4 28//4 30//4
f 14//4 13//4 30//4 29//4
f 16//3 15//3 31//3 32//3
f 15//3 10//3 26//3 31//3
f 11//3 16//3 32//3 27//3
f 20//5 17//5 26//5 25//5
f 18//6 19//6 28//6 27//6
f 21//5 20//5 25//5 29//5
f 19//6 22//6 30//6 28//6
f 24//5 21//5 29//5 31//5
f 22//6 23//6 32//6 30//6
f 17//5 24//5 31//5 26//5
f 23//6 18//6 27//6 32//6
f 2//4 34//4 33//4 1//4
f 4//5 35//5 34//5 2//5
f 3//3 36//3 35//3 4//3
f 1//6 33//6 36//6 3//6
f 12//2 35//2 36//2 9//2
f 13//5 37//5 35//5 12//5
f 14//1 38//1 37//1 13//1
f 9//6 36//6 38//6 14//6
f 8//3 37//3 38//3 7//3
f 6//5 39//5 37//5 8//5
f 5//4 40//4 39//4 6//4
f 7//6 38//6 40//6 5//6
f 16//1 39//1 40//1 15//1
f 11//5 34//5 39//5 16//5
f 10//2 33//2 34//2 11//2
f 15//6 40//6 33//6 10//6
f 21//3 38//3 36//3 20//3
f 24//1 40//1 38//1 21//1
f 17//4 33//4 40//4 24//4
f 20//2 36//2 33//2 17//2
f 19//3 35//3 37//3 22//3
f 18//2 34//2 35//2 19//2
f 23//4 39//4 34//4 18//4
f 22//1 37//1 39//1 23//1
