# Blender v2.93.1 OBJ File: ''
# www.blender.org
mtllib prism.mtl
o Cube
v 1.000000 -1.000000 -1.000000
v 1.000000 -1.000000 1.000000
v 0.000000 1.000000 0.000000
v -1.000000 -1.000000 -1.000000
v -1.000000 -1.000000 1.000000
v 0.000000 -1.500000 0.000000
vt 0.375000 0.750000
vt 0.000000 0.000000
vt 0.125000 0.750000
vt 0.125000 0.500000
vt 0.000000 0.000000
vt 0.375000 0.500000
vn 0.0000 0.4472 0.8944
vn -0.8944 0.4472 0.0000
vn -0.4472 -0.8944 0.0000
vn 0.8944 0.4472 0.0000
vn 0.0000 0.4472 -0.8944
vn 0.0000 -0.8944 0.4472
vn 0.4472 -0.8944 0.0000
vn 0.0000 -0.8944 -0.4472
usemtl Material
s off
f 2/1/1 3/2/1 5/3/1
f 4/4/2 5/3/2 3/2/2
f 5/3/3 4/4/3 6/5/3
f 3/2/4 2/1/4 1/6/4
f 1/6/5 4/4/5 3/2/5
f 5/3/6 6/5/6 2/1/6
f 1/6/7 2/1/7 6/5/7
f 4/4/8 1/6/8 6/5/8
