# Blender v2.93.1 OBJ File: ''
# www.blender.org
mtllib megalithring.mtl
o Megalith_Ring_Cylinder
v 0.000000 0.001721 -3.042331
v 0.000000 -0.001719 -3.042331
v 0.593530 -0.001719 -2.983874
v 0.593530 0.001721 -2.983874
v 1.164249 -0.001719 -2.810748
v 1.164249 0.001721 -2.810748
v 1.690230 -0.001719 -2.529604
v 1.690230 0.001721 -2.529604
v 2.151253 -0.001719 -2.151253
v 2.151253 0.001721 -2.151253
v 2.529604 -0.001719 -1.690229
v 2.529604 0.001721 -1.690229
v 2.810745 -0.001720 -1.164249
v 2.810745 0.001720 -1.164249
v 2.983875 -0.001720 -0.593529
v 2.983875 0.001720 -0.593529
v 3.042332 -0.001720 0.000000
v 3.042332 0.001720 0.000000
v 2.983875 -0.001720 0.593530
v 2.983875 0.001720 0.593530
v 2.810748 -0.001720 1.164249
v 2.810748 0.001720 1.164249
v 2.529604 -0.001721 1.690226
v 2.529604 0.001719 1.690226
v 2.151253 -0.001721 2.151253
v 2.151253 0.001719 2.151253
v 1.690230 -0.001721 2.529606
v 1.690230 0.001719 2.529606
v 1.164249 -0.001721 2.810748
v 1.164249 0.001719 2.810748
v 0.593530 -0.001721 2.983874
v 0.593530 0.001719 2.983874
v 0.000000 -0.001721 3.042331
v 0.000000 0.001719 3.042331
v -0.593529 -0.001721 2.983874
v -0.593529 0.001719 2.983874
v -1.164249 -0.001721 2.810748
v -1.164249 0.001719 2.810748
v -1.690229 -0.001721 2.529604
v -1.690229 0.001719 2.529604
v -2.151253 -0.001721 2.151253
v -2.151253 0.001719 2.151253
v -2.529603 -0.001721 1.690230
v -2.529603 0.001719 1.690230
v -2.810747 -0.001720 1.164249
v -2.810747 0.001720 1.164249
v -2.983874 -0.001720 0.593530
v -2.983874 0.001720 0.593530
v -3.042331 -0.001720 0.000000
v -3.042331 0.001720 0.000000
v -2.983874 -0.001720 -0.593529
v -2.983874 0.001720 -0.593529
v -2.810747 -0.001720 -1.164249
v -2.810747 0.001720 -1.164249
v -2.529606 -0.001719 -1.690226
v -2.529606 0.001721 -1.690226
v -2.151253 -0.001719 -2.151253
v -2.151253 0.001721 -2.151253
v -1.690229 -0.001719 -2.529604
v -1.690229 0.001721 -2.529604
v -1.164249 -0.001719 -2.810748
v -1.164249 0.001721 -2.810748
v -0.593529 -0.001719 -2.983874
v -0.593529 0.001721 -2.983874
v 0.000000 0.002146 -3.792531
v 0.000000 -0.002143 -3.792531
v 0.739885 -0.002143 -3.719658
v 0.739885 0.002146 -3.719658
v 1.451338 -0.002143 -3.503840
v 1.451338 0.002145 -3.503840
v 2.107018 -0.002143 -3.153372
v 2.107018 0.002145 -3.153372
v 2.681725 -0.002143 -2.681725
v 2.681725 0.002145 -2.681725
v 3.153372 -0.002143 -2.107017
v 3.153372 0.002145 -2.107017
v 3.503840 -0.002143 -1.451338
v 3.503840 0.002144 -1.451338
v 3.719658 -0.002144 -0.739887
v 3.719658 0.002144 -0.739887
v 3.792531 -0.002144 0.000000
v 3.792531 0.002144 0.000000
v 3.719658 -0.002144 0.739885
v 3.719658 0.002144 0.739885
v 3.503840 0.002143 1.451338
v 3.503840 -0.002144 1.451338
v 3.153372 -0.002145 2.107017
v 3.153372 0.002143 2.107017
v 2.681725 -0.002145 2.681725
v 2.681725 0.002143 2.681725
v 2.107018 -0.002145 3.153372
v 2.107018 0.002143 3.153372
v 1.451338 -0.002145 3.503840
v 1.451338 0.002143 3.503840
v 0.739885 -0.002146 3.719658
v 0.739885 0.002143 3.719658
v 0.000000 -0.002146 3.792531
v 0.000000 0.002143 3.792531
v -0.739885 -0.002146 3.719658
v -0.739885 0.002143 3.719658
v -1.451338 -0.002145 3.503840
v -1.451338 0.002143 3.503840
v -2.107017 -0.002145 3.153372
v -2.107017 0.002143 3.153372
v -2.681725 -0.002145 2.681725
v -2.681725 0.002143 2.681725
v -3.153372 -0.002145 2.107017
v -3.153372 0.002143 2.107017
v -3.503839 -0.002144 1.451338
v -3.503839 0.002143 1.451338
v -3.719658 -0.002144 0.739887
v -3.719658 0.002144 0.739887
v -3.792531 -0.002144 0.000000
v -3.792531 0.002144 0.000000
v -3.719658 -0.002144 -0.739887
v -3.719658 0.002144 -0.739887
v -3.503839 -0.002143 -1.451338
v -3.503839 0.002144 -1.451338
v -3.153372 -0.002143 -2.107017
v -3.153372 0.002145 -2.107017
v -2.681725 -0.002143 -2.681725
v -2.681725 0.002145 -2.681725
v -2.107017 -0.002143 -3.153372
v -2.107017 0.002145 -3.153372
v -1.451338 -0.002143 -3.503840
v -1.451338 0.002145 -3.503840
v -0.739885 -0.002143 -3.719658
v -0.739885 0.002146 -3.719658
vt 0.500000 0.500227
vt 0.500000 0.499773
vt 0.578250 0.499773
vt 0.578250 0.500227
vt 0.653492 0.499773
vt 0.653492 0.500227
vt 0.722836 0.499773
vt 0.722836 0.500227
vt 0.783617 0.499773
vt 0.783617 0.500227
vt 0.722836 0.499773
vt 0.722836 0.500227
vt 0.653492 0.499773
vt 0.653492 0.500227
vt 0.578250 0.499773
vt 0.578250 0.500227
vt 0.500000 0.499773
vt 0.500000 0.500227
vt 0.421750 0.499773
vt 0.421750 0.500227
vt 0.346508 0.499773
vt 0.346508 0.500227
vt 0.277164 0.499773
vt 0.277164 0.500227
vt 0.216383 0.499773
vt 0.216383 0.500227
vt 0.783617 0.500227
vt 0.783617 0.499773
vt 0.722836 0.499773
vt 0.722836 0.500227
vt 0.653492 0.499773
vt 0.653492 0.500227
vt 0.578250 0.499773
vt 0.578250 0.500227
vt 0.500000 0.499773
vt 0.500000 0.500227
vt 0.421750 0.499773
vt 0.421750 0.500227
vt 0.346508 0.499773
vt 0.346508 0.500227
vt 0.277163 0.499773
vt 0.277163 0.500227
vt 0.216383 0.499773
vt 0.216383 0.500227
vt 0.277163 0.499773
vt 0.277163 0.500227
vt 0.346507 0.499773
vt 0.346507 0.500227
vt 0.421750 0.499773
vt 0.421750 0.500227
vt 0.500000 0.499773
vt 0.500000 0.500227
vt 0.578250 0.499773
vt 0.578250 0.500227
vt 0.653493 0.499773
vt 0.653493 0.500227
vt 0.722836 0.499773
vt 0.722836 0.500227
vt 0.783617 0.499773
vt 0.783617 0.500227
vt 0.216383 0.500227
vt 0.216383 0.499773
vt 0.277163 0.499773
vt 0.277163 0.500227
vt 0.346508 0.499773
vt 0.346508 0.500227
vt 0.421750 0.499773
vt 0.421750 0.500227
vt 0.500000 0.500283
vt 0.500000 0.499717
vt 0.597545 0.499717
vt 0.597545 0.500283
vt 0.691342 0.499717
vt 0.691342 0.500283
vt 0.777785 0.499717
vt 0.777785 0.500283
vt 0.853553 0.499717
vt 0.853553 0.500283
vt 0.777785 0.499717
vt 0.777785 0.500283
vt 0.691342 0.499717
vt 0.691342 0.500283
vt 0.597545 0.499717
vt 0.597545 0.500283
vt 0.500000 0.499717
vt 0.500000 0.500283
vt 0.402455 0.499717
vt 0.402455 0.500283
vt 0.308658 0.500283
vt 0.308658 0.499717
vt 0.222215 0.499717
vt 0.222215 0.500283
vt 0.146447 0.499717
vt 0.146447 0.500283
vt 0.853553 0.500283
vt 0.853553 0.499717
vt 0.777785 0.499717
vt 0.777785 0.500283
vt 0.691342 0.499717
vt 0.691342 0.500283
vt 0.597545 0.499717
vt 0.597545 0.500283
vt 0.500000 0.499717
vt 0.500000 0.500283
vt 0.402455 0.499717
vt 0.402455 0.500283
vt 0.308658 0.499717
vt 0.308658 0.500283
vt 0.222215 0.499717
vt 0.222215 0.500283
vt 0.146447 0.499717
vt 0.146447 0.500283
vt 0.222215 0.499717
vt 0.222215 0.500283
vt 0.308658 0.499717
vt 0.308658 0.500283
vt 0.402455 0.499717
vt 0.402455 0.500283
vt 0.500000 0.499717
vt 0.500000 0.500283
vt 0.597545 0.499717
vt 0.597545 0.500283
vt 0.691342 0.499717
vt 0.691342 0.500283
vt 0.777785 0.499717
vt 0.777785 0.500283
vt 0.853553 0.499717
vt 0.853553 0.500283
vt 0.146447 0.500283
vt 0.146447 0.499717
vt 0.222215 0.499717
vt 0.222215 0.500283
vt 0.308658 0.499717
vt 0.308658 0.500283
vt 0.402455 0.499717
vt 0.402455 0.500283
vt 0.722836 0.166502
vt 0.777785 0.084265
vt 0.853553 0.146447
vt 0.783617 0.216383
vt 0.653492 0.129436
vt 0.691342 0.038060
vt 0.578250 0.106612
vt 0.597545 0.009607
vt 0.500000 0.098905
vt 0.500000 0.000000
vt 0.421750 0.106612
vt 0.402455 0.009607
vt 0.346508 0.129436
vt 0.308658 0.038060
vt 0.277163 0.166502
vt 0.222215 0.084265
vt 0.216383 0.216383
vt 0.146447 0.146447
vt 0.166502 0.277163
vt 0.084265 0.222215
vt 0.129436 0.346507
vt 0.038060 0.308658
vt 0.106612 0.421750
vt 0.009607 0.402455
vt 0.098905 0.500000
vt 0.000000 0.500000
vt 0.106612 0.578250
vt 0.009607 0.597545
vt 0.129436 0.653493
vt 0.038060 0.691342
vt 0.166502 0.722836
vt 0.084265 0.777785
vt 0.216383 0.783617
vt 0.146447 0.853553
vt 0.277163 0.833498
vt 0.222215 0.915735
vt 0.346508 0.870564
vt 0.308658 0.961940
vt 0.421750 0.893388
vt 0.402455 0.990393
vt 0.500000 0.901095
vt 0.500000 1.000000
vt 0.578250 0.893388
vt 0.597545 0.990393
vt 0.653492 0.870564
vt 0.691342 0.961940
vt 0.722836 0.833498
vt 0.777785 0.915735
vt 0.783617 0.783617
vt 0.853553 0.853553
vt 0.833498 0.722836
vt 0.915735 0.777785
vt 0.870564 0.653492
vt 0.961940 0.691342
vt 0.893388 0.578250
vt 0.990393 0.597545
vt 0.901095 0.500000
vt 1.000000 0.500000
vt 0.893388 0.421750
vt 0.990393 0.402455
vt 0.870564 0.346508
vt 0.961940 0.308658
vt 0.833498 0.277164
vt 0.915735 0.222215
vt 0.106612 0.421750
vt 0.009607 0.402455
vt 0.000000 0.500000
vt 0.098905 0.500000
vt 0.129436 0.346507
vt 0.038060 0.308658
vt 0.166502 0.277163
vt 0.084265 0.222215
vt 0.216383 0.216383
vt 0.146447 0.146447
vt 0.277163 0.166502
vt 0.222215 0.084265
vt 0.346508 0.129436
vt 0.308658 0.038060
vt 0.421750 0.106612
vt 0.402455 0.009607
vt 0.500000 0.098905
vt 0.500000 0.000000
vt 0.578250 0.106612
vt 0.597545 0.009607
vt 0.653492 0.129436
vt 0.691342 0.038060
vt 0.722836 0.166502
vt 0.777785 0.084265
vt 0.783617 0.216383
vt 0.853553 0.146447
vt 0.833498 0.277164
vt 0.915735 0.222215
vt 0.870564 0.346508
vt 0.961940 0.308658
vt 0.893388 0.421750
vt 0.990393 0.402455
vt 0.901095 0.500000
vt 1.000000 0.500000
vt 0.893388 0.578250
vt 0.990393 0.597545
vt 0.870564 0.653492
vt 0.961940 0.691342
vt 0.833498 0.722836
vt 0.915735 0.777785
vt 0.783617 0.783617
vt 0.853553 0.853553
vt 0.722836 0.833498
vt 0.777785 0.915735
vt 0.653492 0.870564
vt 0.691342 0.961940
vt 0.578250 0.893388
vt 0.597545 0.990393
vt 0.500000 0.901095
vt 0.500000 1.000000
vt 0.421750 0.893388
vt 0.402455 0.990393
vt 0.346508 0.870564
vt 0.308658 0.961940
vt 0.277163 0.833498
vt 0.222215 0.915735
vt 0.216383 0.783617
vt 0.146447 0.853553
vt 0.166502 0.722836
vt 0.084265 0.777785
vt 0.129436 0.653493
vt 0.038060 0.691342
vt 0.106612 0.578250
vt 0.009607 0.597545
vn -0.0980 0.0000 0.9952
vn -0.2903 0.0000 0.9569
vn -0.4714 0.0000 0.8819
vn -0.6344 0.0000 0.7730
vn -0.7730 0.0000 0.6344
vn -0.8819 0.0000 0.4714
vn -0.9569 0.0000 0.2903
vn -0.9952 -0.0000 0.0980
vn -0.9952 0.0000 -0.0980
vn -0.9569 0.0000 -0.2903
vn -0.8819 0.0000 -0.4714
vn -0.7730 0.0000 -0.6344
vn -0.6344 0.0000 -0.7730
vn -0.4714 0.0000 -0.8819
vn -0.2903 0.0000 -0.9569
vn -0.0980 0.0000 -0.9952
vn 0.0980 0.0000 -0.9952
vn 0.2903 0.0000 -0.9569
vn 0.4714 0.0000 -0.8819
vn 0.6344 0.0000 -0.7730
vn 0.7730 0.0000 -0.6344
vn 0.8819 0.0000 -0.4714
vn 0.9569 0.0000 -0.2903
vn 0.9952 0.0000 -0.0980
vn 0.9952 0.0000 0.0980
vn 0.9569 0.0000 0.2903
vn 0.8819 0.0000 0.4714
vn 0.7730 0.0000 0.6344
vn 0.6344 0.0000 0.7730
vn 0.4714 0.0000 0.8819
vn 0.2903 0.0000 0.9569
vn 0.0980 0.0000 0.9952
vn -0.0003 1.0000 -0.0005
vn -0.0004 1.0000 -0.0004
vn -0.0002 1.0000 -0.0005
vn -0.0001 1.0000 -0.0006
vn -0.0000 1.0000 -0.0006
vn 0.0001 1.0000 -0.0006
vn 0.0002 1.0000 -0.0005
vn 0.0003 1.0000 -0.0005
vn 0.0004 1.0000 -0.0004
vn 0.0005 1.0000 -0.0003
vn 0.0005 1.0000 -0.0002
vn 0.0006 1.0000 -0.0001
vn 0.0006 1.0000 0.0000
vn 0.0006 1.0000 0.0001
vn 0.0005 1.0000 0.0002
vn 0.0005 1.0000 0.0003
vn 0.0004 1.0000 0.0004
vn 0.0003 1.0000 0.0005
vn 0.0002 1.0000 0.0005
vn 0.0001 1.0000 0.0006
vn 0.0000 1.0000 0.0006
vn -0.0001 1.0000 0.0006
vn -0.0002 1.0000 0.0005
vn -0.0003 1.0000 0.0005
vn -0.0004 1.0000 0.0004
vn -0.0005 1.0000 0.0003
vn -0.0005 1.0000 0.0002
vn -0.0006 1.0000 0.0001
vn -0.0006 1.0000 0.0000
vn -0.0006 1.0000 -0.0001
vn -0.0005 1.0000 -0.0002
vn -0.0005 1.0000 -0.0003
vn 0.0006 -1.0000 -0.0001
vn 0.0006 -1.0000 -0.0000
vn 0.0005 -1.0000 -0.0002
vn 0.0005 -1.0000 -0.0003
vn 0.0004 -1.0000 -0.0004
vn 0.0003 -1.0000 -0.0005
vn 0.0002 -1.0000 -0.0005
vn 0.0001 -1.0000 -0.0006
vn 0.0000 -1.0000 -0.0006
vn -0.0001 -1.0000 -0.0006
vn -0.0002 -1.0000 -0.0005
vn -0.0003 -1.0000 -0.0005
vn -0.0004 -1.0000 -0.0004
vn -0.0005 -1.0000 -0.0003
vn -0.0005 -1.0000 -0.0002
vn -0.0006 -1.0000 -0.0001
vn -0.0006 -1.0000 -0.0000
vn -0.0006 -1.0000 0.0001
vn -0.0005 -1.0000 0.0002
vn -0.0005 -1.0000 0.0003
vn -0.0004 -1.0000 0.0004
vn -0.0003 -1.0000 0.0005
vn -0.0002 -1.0000 0.0005
vn -0.0001 -1.0000 0.0006
vn -0.0000 -1.0000 0.0006
vn 0.0001 -1.0000 0.0006
vn 0.0002 -1.0000 0.0005
vn 0.0003 -1.0000 0.0005
vn 0.0004 -1.0000 0.0004
vn 0.0005 -1.0000 0.0003
vn 0.0005 -1.0000 0.0002
vn 0.0006 -1.0000 0.0001
usemtl Material.002
s 1
f 1/1/1 2/2/1 3/3/1 4/4/1
f 4/4/2 3/3/2 5/5/2 6/6/2
f 6/6/3 5/5/3 7/7/3 8/8/3
f 8/8/4 7/7/4 9/9/4 10/10/4
f 10/10/5 9/9/5 11/11/5 12/12/5
f 12/12/6 11/11/6 13/13/6 14/14/6
f 14/14/7 13/13/7 15/15/7 16/16/7
f 16/16/8 15/15/8 17/17/8 18/18/8
f 18/18/9 17/17/9 19/19/9 20/20/9
f 20/20/10 19/19/10 21/21/10 22/22/10
f 22/22/11 21/21/11 23/23/11 24/24/11
f 24/24/12 23/23/12 25/25/12 26/26/12
f 26/27/13 25/28/13 27/29/13 28/30/13
f 28/30/14 27/29/14 29/31/14 30/32/14
f 30/32/15 29/31/15 31/33/15 32/34/15
f 32/34/16 31/33/16 33/35/16 34/36/16
f 34/36/17 33/35/17 35/37/17 36/38/17
f 36/38/18 35/37/18 37/39/18 38/40/18
f 38/40/19 37/39/19 39/41/19 40/42/19
f 40/42/20 39/41/20 41/43/20 42/44/20
f 42/44/21 41/43/21 43/45/21 44/46/21
f 44/46/22 43/45/22 45/47/22 46/48/22
f 46/48/23 45/47/23 47/49/23 48/50/23
f 48/50/24 47/49/24 49/51/24 50/52/24
f 50/52/25 49/51/25 51/53/25 52/54/25
f 52/54/26 51/53/26 53/55/26 54/56/26
f 54/56/27 53/55/27 55/57/27 56/58/27
f 56/58/28 55/57/28 57/59/28 58/60/28
f 58/61/29 57/62/29 59/63/29 60/64/29
f 60/64/30 59/63/30 61/65/30 62/66/30
f 62/66/31 61/65/31 63/67/31 64/68/31
f 64/68/32 63/67/32 2/2/32 1/1/32
f 65/69/1 66/70/1 67/71/1 68/72/1
f 68/72/2 67/71/2 69/73/2 70/74/2
f 70/74/3 69/73/3 71/75/3 72/76/3
f 72/76/4 71/75/4 73/77/4 74/78/4
f 74/78/5 73/77/5 75/79/5 76/80/5
f 76/80/6 75/79/6 77/81/6 78/82/6
f 78/82/7 77/81/7 79/83/7 80/84/7
f 80/84/8 79/83/8 81/85/8 82/86/8
f 82/86/9 81/85/9 83/87/9 84/88/9
f 85/89/11 86/90/11 87/91/11 88/92/11
f 88/92/12 87/91/12 89/93/12 90/94/12
f 90/95/13 89/96/13 91/97/13 92/98/13
f 92/98/14 91/97/14 93/99/14 94/100/14
f 94/100/15 93/99/15 95/101/15 96/102/15
f 96/102/16 95/101/16 97/103/16 98/104/16
f 98/104/17 97/103/17 99/105/17 100/106/17
f 100/106/18 99/105/18 101/107/18 102/108/18
f 102/108/19 101/107/19 103/109/19 104/110/19
f 104/110/20 103/109/20 105/111/20 106/112/20
f 106/112/21 105/111/21 107/113/21 108/114/21
f 108/114/22 107/113/22 109/115/22 110/116/22
f 110/116/23 109/115/23 111/117/23 112/118/23
f 112/118/24 111/117/24 113/119/24 114/120/24
f 114/120/25 113/119/25 115/121/25 116/122/25
f 116/122/26 115/121/26 117/123/26 118/124/26
f 118/124/27 117/123/27 119/125/27 120/126/27
f 120/126/28 119/125/28 121/127/28 122/128/28
f 122/129/29 121/130/29 123/131/29 124/132/29
f 124/132/30 123/131/30 125/133/30 126/134/30
f 126/134/31 125/133/31 127/135/31 128/136/31
f 128/136/32 127/135/32 66/70/32 65/69/32
f 84/88/10 83/87/10 86/90/10 85/89/10
f 28/137/33 92/138/33 90/139/34 26/140/34
f 30/141/35 94/142/35 92/138/33 28/137/33
f 32/143/36 96/144/36 94/142/35 30/141/35
f 34/145/37 98/146/37 96/144/36 32/143/36
f 36/147/38 100/148/38 98/146/37 34/145/37
f 38/149/39 102/150/39 100/148/38 36/147/38
f 40/151/40 104/152/40 102/150/39 38/149/39
f 42/153/41 106/154/41 104/152/40 40/151/40
f 44/155/42 108/156/42 106/154/41 42/153/41
f 46/157/43 110/158/43 108/156/42 44/155/42
f 48/159/44 112/160/44 110/158/43 46/157/43
f 50/161/45 114/162/45 112/160/44 48/159/44
f 52/163/46 116/164/46 114/162/45 50/161/45
f 54/165/47 118/166/47 116/164/46 52/163/46
f 56/167/48 120/168/48 118/166/47 54/165/47
f 58/169/49 122/170/49 120/168/48 56/167/48
f 60/171/50 124/172/50 122/170/49 58/169/49
f 62/173/51 126/174/51 124/172/50 60/171/50
f 64/175/52 128/176/52 126/174/51 62/173/51
f 1/177/53 65/178/53 128/176/52 64/175/52
f 4/179/54 68/180/54 65/178/53 1/177/53
f 6/181/55 70/182/55 68/180/54 4/179/54
f 8/183/56 72/184/56 70/182/55 6/181/55
f 10/185/57 74/186/57 72/184/56 8/183/56
f 12/187/58 76/188/58 74/186/57 10/185/57
f 14/189/59 78/190/59 76/188/58 12/187/58
f 16/191/60 80/192/60 78/190/59 14/189/59
f 18/193/61 82/194/61 80/192/60 16/191/60
f 20/195/62 84/196/62 82/194/61 18/193/61
f 22/197/63 85/198/63 84/196/62 20/195/62
f 24/199/64 88/200/64 85/198/63 22/197/63
f 26/140/34 90/139/34 88/200/64 24/199/64
f 47/201/65 111/202/65 113/203/66 49/204/66
f 45/205/67 109/206/67 111/202/65 47/201/65
f 43/207/68 107/208/68 109/206/67 45/205/67
f 41/209/69 105/210/69 107/208/68 43/207/68
f 39/211/70 103/212/70 105/210/69 41/209/69
f 37/213/71 101/214/71 103/212/70 39/211/70
f 35/215/72 99/216/72 101/214/71 37/213/71
f 33/217/73 97/218/73 99/216/72 35/215/72
f 31/219/74 95/220/74 97/218/73 33/217/73
f 29/221/75 93/222/75 95/220/74 31/219/74
f 27/223/76 91/224/76 93/222/75 29/221/75
f 25/225/77 89/226/77 91/224/76 27/223/76
f 23/227/78 87/228/78 89/226/77 25/225/77
f 21/229/79 86/230/79 87/228/78 23/227/78
f 21/229/79 19/231/80 83/232/80 86/230/79
f 17/233/81 81/234/81 83/232/80 19/231/80
f 15/235/82 79/236/82 81/234/81 17/233/81
f 13/237/83 77/238/83 79/236/82 15/235/82
f 11/239/84 75/240/84 77/238/83 13/237/83
f 9/241/85 73/242/85 75/240/84 11/239/84
f 7/243/86 71/244/86 73/242/85 9/241/85
f 5/245/87 69/246/87 71/244/86 7/243/86
f 3/247/88 67/248/88 69/246/87 5/245/87
f 2/249/89 66/250/89 67/248/88 3/247/88
f 63/251/90 127/252/90 66/250/89 2/249/89
f 61/253/91 125/254/91 127/252/90 63/251/90
f 59/255/92 123/256/92 125/254/91 61/253/91
f 57/257/93 121/258/93 123/256/92 59/255/92
f 55/259/94 119/260/94 121/258/93 57/257/93
f 53/261/95 117/262/95 119/260/94 55/259/94
f 51/263/96 115/264/96 117/262/95 53/261/95
f 49/204/66 113/203/66 115/264/96 51/263/96
